<?xml version="1.0" encoding="iso-8859-1"?>
<!-- Generator: Adobe Illustrator 19.0.0, SVG Export Plug-In . SVG Version: 6.00 Build 0)  -->
<svg version="1.1" id="Layer_1" xmlns="http://www.w3.org/2000/svg" xmlns:xlink="http://www.w3.org/1999/xlink" x="0px" y="0px"
	 viewBox="0 0 512 512" style="enable-background:new 0 0 512 512;" xml:space="preserve">
<path style="fill:#FFEFD9;" d="M422.957,177.875H89.043c-27.619,0-50.087,22.468-50.087,50.087v183.652h434.087V227.962
	C473.043,200.342,450.576,177.875,422.957,177.875z"/>
<path style="fill:#FFD9B3;" d="M422.957,177.875H256v233.739h217.043V227.962C473.043,200.342,450.576,177.875,422.957,177.875z"/>
<path style="fill:#A6673A;" d="M38.957,378.223v33.391v50.087c0,9.223,7.479,16.696,16.696,16.696h400.696
	c9.217,0,16.696-7.473,16.696-16.696v-50.087v-33.391H38.957z"/>
<path style="fill:#99522E;" d="M256,478.397h200.348c9.217,0,16.696-7.473,16.696-16.696v-50.087v-33.391H256V478.397z"/>
<path style="fill:#FFC033;" d="M456.348,511.788H55.652C24.917,511.788,0,486.872,0,456.136l0,0c0-6.147,4.983-11.13,11.13-11.13
	H500.87c6.147,0,11.13,4.983,11.13,11.13l0,0C512,486.872,487.083,511.788,456.348,511.788z"/>
<path style="fill:#F9A926;" d="M500.87,445.006H256v66.783h200.348c30.737,0,55.652-24.917,55.652-55.652
	C512,449.988,507.016,445.006,500.87,445.006z"/>
<path style="fill:#A6673A;" d="M322.783,122.223h-20.52c25.371-21.421,42.662-39.506,42.662-66.543
	c0-31.103-23.196-55.467-52.815-55.467c-15.728,0-27.598,6.685-36.108,15.386c-8.511-8.702-20.382-15.387-36.109-15.387
	c-29.619,0-52.815,24.365-52.815,55.467c0,27.037,17.291,45.123,42.662,66.543h-20.521c-27.619,0-50.087,22.468-50.087,50.087
	v22.261c0,9.223,7.479,16.696,16.696,16.696h200.348c9.217,0,16.696-7.473,16.696-16.696v-22.261
	C372.87,144.69,350.402,122.223,322.783,122.223z M219.892,33.603c14.173,0,19.761,17.87,20.065,18.864
	c2.055,7.152,8.598,12.087,16.043,12.087c7.49,0,14.054-4.984,16.076-12.196c0.055-0.185,5.652-18.756,20.033-18.756
	c12.75,0,19.424,11.104,19.424,22.076c0,15.146-14.239,27.532-43.881,51.897c-3.729,3.071-7.62,6.266-11.652,9.63
	c-4.033-3.364-7.924-6.56-11.652-9.63c-29.641-24.365-43.881-36.75-43.881-51.897C200.467,44.707,207.142,33.603,219.892,33.603z"/>
<path style="fill:#99522E;" d="M272.076,52.359c0.055-0.185,5.652-18.756,20.033-18.756c12.75,0,19.424,11.104,19.424,22.076
	c0,15.146-14.239,27.532-43.881,51.897c-3.729,3.071-7.62,6.266-11.652,9.63v94.06h100.174c9.217,0,16.696-7.473,16.696-16.696
	v-22.261c0-27.619-22.468-50.087-50.087-50.087h-20.52c25.371-21.421,42.662-39.506,42.662-66.543
	c0-31.103-23.196-55.467-52.815-55.467c-15.728,0-27.598,6.685-36.108,15.386v48.956C263.49,64.554,270.054,59.571,272.076,52.359z"
	/>
<path style="fill:#E6563A;" d="M422.957,177.875H89.043c-27.619,0-50.087,22.468-50.087,50.087v33.391
	c0,21.737,14,40.096,33.391,47.01c5.247,1.871,10.812,3.076,16.696,3.076c12.816,0,24.521-4.837,33.391-12.782
	c8.87,7.946,20.576,12.782,33.391,12.782s24.521-4.837,33.391-12.782c8.87,7.946,20.576,12.782,33.391,12.782
	c12.816,0,24.521-4.837,33.391-12.782c8.87,7.946,20.576,12.782,33.391,12.782s24.521-4.837,33.391-12.782
	c8.87,7.946,20.576,12.782,33.391,12.782c12.816,0,24.521-4.837,33.391-12.782c8.87,7.946,20.576,12.782,33.391,12.782
	c5.884,0,11.449-1.205,16.696-3.076c19.391-6.914,33.391-25.273,33.391-47.01v-33.391
	C473.043,200.342,450.576,177.875,422.957,177.875z"/>
<path style="fill:#D9472B;" d="M422.957,177.875H256v120.783c8.87,7.946,20.576,12.782,33.391,12.782s24.521-4.837,33.391-12.782
	c8.87,7.946,20.576,12.782,33.391,12.782c12.816,0,24.521-4.837,33.391-12.782c8.87,7.946,20.576,12.782,33.391,12.782
	c5.884,0,11.449-1.205,16.696-3.076c19.391-6.914,33.391-25.273,33.391-47.01v-33.391
	C473.043,200.342,450.576,177.875,422.957,177.875z"/>
<g>
</g>
<g>
</g>
<g>
</g>
<g>
</g>
<g>
</g>
<g>
</g>
<g>
</g>
<g>
</g>
<g>
</g>
<g>
</g>
<g>
</g>
<g>
</g>
<g>
</g>
<g>
</g>
<g>
</g>
</svg>
