<?xml version="1.0" encoding="iso-8859-1"?>
<!-- Generator: Adobe Illustrator 19.0.0, SVG Export Plug-In . SVG Version: 6.00 Build 0)  -->
<svg version="1.1" id="Layer_1" xmlns="http://www.w3.org/2000/svg" xmlns:xlink="http://www.w3.org/1999/xlink" x="0px" y="0px"
	 viewBox="0 0 460 460" style="enable-background:new 0 0 460 460;" xml:space="preserve">
<g>
	<path style="fill:#C2FBFF;" d="M230,0C102.974,0,0,102.975,0,230s102.974,230,230,230c5.514,0,10.982-0.194,16.399-0.575
		l206.802-285.159C428.288,74.171,337.806,0,230,0z"/>
	<path style="fill:#71E2F0;" d="M246.398,459.412C365.769,451.001,460,351.511,460,230c0-19.219-2.372-37.882-6.813-55.726
		l-71.197-71.197L256.147,206.854L152.37,103.077l-80.193,6.193l35.415,35.416l-5.415,170.584L246.398,459.412z"/>
	<path style="fill:#121149;" d="M181.205,362.77l7.5,27.5c15.188,0,27.5-12.312,27.5-27.5s-12.312-27.5-27.5-27.5L181.205,362.77z"
		/>
	<path style="fill:#273B7A;" d="M161.205,362.77c0,15.188,12.312,27.5,27.5,27.5v-55C173.517,335.27,161.205,347.582,161.205,362.77
		z"/>
	<path style="fill:#121149;" d="M327.785,362.77l7.5,27.5c15.188,0,27.5-12.312,27.5-27.5s-12.312-27.5-27.5-27.5L327.785,362.77z"
		/>
	<path style="fill:#273B7A;" d="M307.785,362.77c0,15.188,12.312,27.5,27.5,27.5v-55C320.097,335.27,307.785,347.582,307.785,362.77
		z"/>
	<polygon style="fill:#D48B07;" points="381.99,103.077 381.99,305.27 266.685,305.27 282.076,113.077 302.083,103.076 	"/>
	<polygon style="fill:#FFC61B;" points="282.076,113.077 282.076,305.27 182.177,305.27 182.177,103.077 262.083,103.076 	"/>
	<rect x="262.083" y="103.076" style="fill:#FFFFFF;" width="40" height="60"/>
	<polygon style="fill:#121149;" points="421.813,315.27 102.177,315.27 102.177,99.27 122.177,99.27 122.177,295.27 142.177,295.27 
		152.177,285.27 162.177,295.27 421.813,295.27 	"/>
	<path style="fill:#273B7A;" d="M162.177,295.27h-20v-166c0-11.028-8.972-20-20-20h-50v-20h50c22.056,0,40,17.944,40,40V295.27z"/>
</g>
<g>
</g>
<g>
</g>
<g>
</g>
<g>
</g>
<g>
</g>
<g>
</g>
<g>
</g>
<g>
</g>
<g>
</g>
<g>
</g>
<g>
</g>
<g>
</g>
<g>
</g>
<g>
</g>
<g>
</g>
</svg>
