<?xml version="1.0" encoding="utf-8"?>
<!-- Generator: Adobe Illustrator 24.1.1, SVG Export Plug-In . SVG Version: 6.00 Build 0)  -->
<svg version="1.1" id="Layer_1" xmlns="http://www.w3.org/2000/svg" xmlns:xlink="http://www.w3.org/1999/xlink" x="0px" y="0px"
	 viewBox="0 0 512 512" style="enable-background:new 0 0 512 512;" xml:space="preserve" width="13px" height="auto">
<g>
	<path d="M490,22l1.5-21.3c-0.4,0-11.1-0.8-27.7-0.8c-22.3,0-55.2,1.3-88.6,7.8c-33.2,6.6-67.4,17.7-92,41.8l0,0l-80.7,80.7
		L98,151.2L0,216.5L197,315l98.5,197l65.3-98l20.9-104.4l80.7-80.7l0,0c24.1-24.6,35.2-58.8,41.8-92c6.5-33.3,7.7-66.2,7.8-88.6
		c0-16.6-0.7-27.4-0.8-27.7l-1.3-18.5l-18.5-1.3L490,22l-21.3,1.5l0.1,1.5c0.2,3.3,0.6,11.7,0.6,23.2c0,20.6-1.3,51.3-7,80.4
		c-5.5,29.2-16.1,56.4-30.2,70.1l0,0l-89.8,89.8l-21.8,108.8l-19.9,29.9l-72-144l-144-72l29.9-19.9l108.8-21.8l89.8-89.8l0,0
		c13.7-14.1,40.9-24.7,70.1-30.2c29.1-5.7,59.8-7,80.4-7c7.7,0,14,0.2,18.3,0.3c2.2,0.1,3.8,0.2,4.9,0.2l1.5,0.1L490,22l-21.3,1.5
		L490,22z M362.1,171.2v-21.3l0,0v0v0V171.2v21.3c23.5,0,42.6-19.1,42.6-42.6c0-23.6-19.1-42.6-42.6-42.6
		c-23.6,0-42.6,19.1-42.6,42.6c0,23.5,19.1,42.6,42.6,42.6V171.2z M148.9,363.1L164,348c-15.9-15.7-37.1-22.1-57.7-22.2
		c-20.6,0.1-41.8,6.6-57.7,22.2c-10.1,10.5-14.1,22.5-17.8,35.1c-5.1,18.9-7.4,40.1-8.6,57c-1.2,16.8-1.2,29.2-1.2,29.6v21.3h21.3
		c0.5,0,22.3,0,47.6-2.8c12.7-1.4,26.2-3.5,38.9-6.9c12.7-3.7,24.6-7.7,35.1-17.8l0,0c15.7-15.9,22.1-37.1,22.2-57.7
		c-0.1-20.6-6.6-41.8-22.2-57.7l0,0L148.9,363.1l-15.1,15.1c5.7,5.4,9.8,16.2,9.7,27.6c0.1,11.4-4.1,22.1-9.7,27.6l0,0
		c-0.1,0.6-6.9,4.5-16.2,6.8c-14,3.9-33.4,6.1-48.7,7.2c-7.7,0.5-14.4,0.8-19.2,0.9c-2.4,0.1-4.3,0.1-5.6,0.1l-1.9,0v21.3h21.3
		c0,0,0-1.1,0-3.3c0.1-7.8,0.8-28.2,3.6-48.1c1.4-9.9,3.3-19.7,5.6-27.2c2.2-7.6,5.4-12.7,5.9-12.8c5.4-5.7,16.2-9.8,27.6-9.7
		c11.4-0.1,22.1,4.1,27.6,9.7l0,0L148.9,363.1z" fill="#19eec1"/>
</g>
</svg>
